<mxfile host="app.diagrams.net" modified="2023-09-01T10:35:28.413Z" agent="Mozilla/5.0 (Windows NT 10.0; Win64; x64) AppleWebKit/537.36 (KHTML, like Gecko) Chrome/116.0.0.0 Safari/537.36" etag="Km-tSvDRxAKgi4aluPX_" version="21.7.1" type="github">
  <diagram name="Page-1" id="c9db0220-8083-56f3-ca83-edcdcd058819">
    <mxGraphModel dx="835" dy="1140" grid="1" gridSize="10" guides="1" tooltips="1" connect="1" arrows="1" fold="1" page="1" pageScale="1.5" pageWidth="826" pageHeight="1169" background="#ffffff" math="0" shadow="0">
      <root>
        <mxCell id="0" style=";html=1;" />
        <mxCell id="1" style=";html=1;" parent="0" />
        <mxCell id="dUX9iCNAQKfr8uLh1qFC-8" value="" style="group" vertex="1" connectable="0" parent="1">
          <mxGeometry x="200" y="520" width="810" height="430" as="geometry" />
        </mxCell>
        <mxCell id="dUX9iCNAQKfr8uLh1qFC-6" value="" style="rounded=0;whiteSpace=wrap;html=1;strokeWidth=2;" vertex="1" parent="dUX9iCNAQKfr8uLh1qFC-8">
          <mxGeometry y="30" width="810" height="400" as="geometry" />
        </mxCell>
        <mxCell id="dUX9iCNAQKfr8uLh1qFC-7" value="&lt;b&gt;&lt;font style=&quot;font-size: 15px;&quot;&gt;App(ctk.CTk)&lt;/font&gt;&lt;/b&gt;" style="text;html=1;strokeColor=none;fillColor=none;align=center;verticalAlign=middle;whiteSpace=wrap;rounded=0;" vertex="1" parent="dUX9iCNAQKfr8uLh1qFC-8">
          <mxGeometry x="10" width="60" height="30" as="geometry" />
        </mxCell>
        <mxCell id="dUX9iCNAQKfr8uLh1qFC-9" value="" style="rounded=0;whiteSpace=wrap;html=1;" vertex="1" parent="dUX9iCNAQKfr8uLh1qFC-8">
          <mxGeometry x="10" y="40" width="790" height="160" as="geometry" />
        </mxCell>
        <mxCell id="dUX9iCNAQKfr8uLh1qFC-10" value="" style="rounded=0;whiteSpace=wrap;html=1;" vertex="1" parent="dUX9iCNAQKfr8uLh1qFC-8">
          <mxGeometry x="10" y="250" width="790" height="170" as="geometry" />
        </mxCell>
        <mxCell id="dUX9iCNAQKfr8uLh1qFC-11" value="" style="rounded=0;whiteSpace=wrap;html=1;" vertex="1" parent="dUX9iCNAQKfr8uLh1qFC-8">
          <mxGeometry x="10" y="211" width="790" height="30" as="geometry" />
        </mxCell>
        <mxCell id="dUX9iCNAQKfr8uLh1qFC-12" value="&lt;div style=&quot;color: rgb(204, 204, 204); background-color: rgb(31, 31, 31); font-family: Consolas, &amp;quot;Courier New&amp;quot;, monospace; font-size: 14px; line-height: 19px;&quot;&gt;FrameWidgetsUrl&lt;/div&gt;" style="text;html=1;strokeColor=none;fillColor=none;align=center;verticalAlign=middle;whiteSpace=wrap;rounded=0;" vertex="1" parent="dUX9iCNAQKfr8uLh1qFC-8">
          <mxGeometry x="50" y="70" width="60" height="30" as="geometry" />
        </mxCell>
        <mxCell id="dUX9iCNAQKfr8uLh1qFC-13" value="&lt;div style=&quot;color: rgb(204, 204, 204); background-color: rgb(31, 31, 31); font-family: Consolas, &amp;quot;Courier New&amp;quot;, monospace; font-size: 14px; line-height: 19px;&quot;&gt;FrameWidgetsLoading&lt;/div&gt;" style="text;html=1;strokeColor=none;fillColor=none;align=center;verticalAlign=middle;whiteSpace=wrap;rounded=0;" vertex="1" parent="dUX9iCNAQKfr8uLh1qFC-8">
          <mxGeometry x="70" y="300" width="60" height="30" as="geometry" />
        </mxCell>
        <mxCell id="dUX9iCNAQKfr8uLh1qFC-14" value="&lt;div style=&quot;color: rgb(204, 204, 204); background-color: rgb(31, 31, 31); font-family: Consolas, &amp;quot;Courier New&amp;quot;, monospace; font-size: 14px; line-height: 19px;&quot;&gt;FrameWidgetsOptions&lt;/div&gt;" style="text;html=1;strokeColor=none;fillColor=none;align=center;verticalAlign=middle;whiteSpace=wrap;rounded=0;" vertex="1" parent="dUX9iCNAQKfr8uLh1qFC-8">
          <mxGeometry x="70" y="270" width="60" height="30" as="geometry" />
        </mxCell>
        <mxCell id="dUX9iCNAQKfr8uLh1qFC-17" value="&lt;div style=&quot;color: rgb(204, 204, 204); background-color: rgb(31, 31, 31); font-family: Consolas, &amp;quot;Courier New&amp;quot;, monospace; font-size: 14px; line-height: 19px;&quot;&gt;SeparatorHLine&lt;/div&gt;" style="text;html=1;strokeColor=none;fillColor=none;align=center;verticalAlign=middle;whiteSpace=wrap;rounded=0;" vertex="1" parent="dUX9iCNAQKfr8uLh1qFC-8">
          <mxGeometry x="50" y="211" width="60" height="30" as="geometry" />
        </mxCell>
      </root>
    </mxGraphModel>
  </diagram>
</mxfile>
